<?xml version="1.0" encoding="UTF-8" standalone="no"?>
<!-- Created with Inkscape (http://www.inkscape.org/) -->

<svg
   version="1.1"
   id="svg55"
   width="40"
   height="40"
   x="20"
   viewBox="0 0 331 282"
   sodipodi:docname="devtalk.svg"
   inkscape:version="1.1 (1:1.1+202106031931+af4d65493e)"
   xmlns:inkscape="http://www.inkscape.org/namespaces/inkscape"
   xmlns:sodipodi="http://sodipodi.sourceforge.net/DTD/sodipodi-0.dtd"
   xmlns="http://www.w3.org/2000/svg"
   xmlns:svg="http://www.w3.org/2000/svg">
  <defs
     id="defs59" />
  <sodipodi:namedview
     id="namedview57"
     pagecolor="#ffffff"
     bordercolor="#666666"
     borderopacity="1.0"
     inkscape:pageshadow="2"
     inkscape:pageopacity="0.0"
     inkscape:pagecheckerboard="0"
     showgrid="false"
     inkscape:zoom="4.2925532"
     inkscape:cx="111.5886"
     inkscape:cy="94"
     inkscape:window-width="1920"
     inkscape:window-height="1016"
     inkscape:window-x="0"
     inkscape:window-y="27"
     inkscape:window-maximized="1"
     inkscape:current-layer="g61" />
  <g
     inkscape:groupmode="layer"
     inkscape:label="Image"
     id="g61"
     transform="translate(48.000000, 48.000000)">
    <path
       style="fill:#ffffff;stroke:none"
       d="m 114.84252,156.49956 -3,32 c 13.893,-1.88 27.335,-10.634 39,-17.95 25.74,-16.144 56.403,-33.625 66.644,-64.05 15.833,-47.035802 -13.356,-104.6798222 -66.644,-105.98533841 -17.644,-0.4322667 -35.35,-0.014664 -53,-0.014664 -23.4783,0 -46.3863,-0.502167 -66,14.67980041 -41.2288989,31.9131 -40.2092992,102.135202 5,130.254202 23.5306,14.636 51.5349,11.066 78,11.066 m 23,-129.000002 c -8.098,24.8861 -16.07,49.8837 -23.424,75.000002 -2.01,6.864 -4.466,24.613 -10.278,28.972 -3.8605,2.895 -13.635,1.028 -18.298,1.028 7.0472,-24.834 15.3143,-49.350502 22.975,-74.000002 2.591,-8.3377 4.142,-23.9091 10.111,-30.3966 3.339,-3.6304 14.716,-1.8441 18.914,-0.6034 m -58,16 -1.0278,17.787 -30.9722,19.213 c 7.351,2.6751 28.1968,10.8575 31.3966,18.213 2.0814,4.785002 0.6034,12.624002 0.6034,17.787002 -12.7353,-3.676 -25.4538,-12.915 -37,-19.424402 -3.8631,-2.1779 -10.5561,-4.3921 -12.3966,-8.7608 -1.5738,-3.7354 -1.8194,-14.8277 0.4244,-18.2855 2.3621,-3.6401 8.3266,-5.4587 11.9722,-7.5293 11.0486,-6.2753 24.4423,-16.7601 37,-19 m 65,73.000002 c 0,-5.246 -1.707,-14.151 1.028,-18.787002 4.202,-7.1238 22.327,-14.431 29.972,-17.213 l -29.972,-18.3904 -1.028,-18.6096 c 11.882,3.4296 23.159,11.8738 34,17.7693 4.111,2.2356 11.358,4.732 13.972,8.76 2.272,3.5001 2.146,15.6023 0,19.142 -2.559,4.2205 -9.784,6.7231 -13.972,9.0231 -11.174,6.136602 -22.239,13.383602 -34,18.305602 z"
       id="path181" />
  </g>
</svg>
