<?xml version="1.0" ?><!DOCTYPE svg  PUBLIC '-//W3C//DTD SVG 1.1//EN'  'http://www.w3.org/Graphics/SVG/1.1/DTD/svg11.dtd'><svg enable-background="new 0 0 48 48" height="40px" id="Layer_3" version="1.1" viewBox="0 0 82 82" width="40px" xml:space="preserve" xmlns="http://www.w3.org/2000/svg" xmlns:xlink="http://www.w3.org/1999/xlink"><g transform="translate(18.0, 18.0)"><polygon fill="#fff" points="43.78,14.897 43.78,9.858 48,5.89 48,4.945 34.615,4.945 29.64,17.743 25.299,28.361 20.106,17.174   20.106,17.174 14.615,4.945 0.536,4.945 0.536,5.89 5.669,11.969 5.669,14.897 5.669,15.527 5.669,35.055 0,42.016 0,43.055   14.299,43.055 14.299,42.016 8.567,35.055 8.567,15.59 8.567,15.527 8.567,15.475 8.614,15.59 8.567,15.59 8.99,16.523   8.992,16.528 8.992,16.528 21,43.055 22.583,43.055 32.896,16.686 33.323,15.59 33.323,38.023 29.103,42.016 29.103,43.055   48,43.055 48,42.016 43.78,38.023 43.78,16.126 "/></g></svg>
