<?xml version="1.0" ?><svg enable-background="new 0 0 100 100" height="60px" id="Layer_1" version="1.1" viewBox="0 0 100 100" width="60px" xml:space="preserve" xmlns="http://www.w3.org/2000/svg" xmlns:xlink="http://www.w3.org/1999/xlink"><g fill="#fff"><defs><rect height="100" id="SVGID_1_" width="100"/></defs><path d="M93.62,40.316c-3.437,6.591-10.616,8.598-17.634,12.282v14.227   c0,2.006-2.584,13.676-12.442,13.676c-9.86,0-13.114-5.646-13.114-7.984V59.333c-0.968-0.233-1.921-0.565-2.839-1.045v14.228   c0,2.344-3.674,5.689-8.518,5.689c-4.844,0-14.198-6.857-14.198-11.381V51.42c0,0-12.962-5.074-15.97-8.758   c-3.01-3.686-4.513-5.191-3.676-7.362c0.804-2.103,10.526,6.023,16.205,7.362c5.685,1.34,15.539,2.011,19.718,1.845   c4.179-0.168,6.519,1.506,8.856,3.679c0.125,0.116,0.271,0.239,0.421,0.361v-1.64c0-2.006,5.347-2.845,8.521-2.845h14.194   c1.671,0,14.625-4.245,17.636-7.597C93.786,33.12,96.853,34.121,93.62,40.316 M63.687,39.417c5.49,0,9.94-4.457,9.94-9.959   c0-5.501-4.45-9.958-9.94-9.958c-5.485,0-9.937,4.457-9.937,9.958C53.75,34.96,58.201,39.417,63.687,39.417 M37.498,39.417   c5.489,0,9.939-4.457,9.939-9.959c0-5.501-4.45-9.958-9.939-9.958c-5.489,0-9.938,4.457-9.938,9.958   C27.56,34.96,32.008,39.417,37.498,39.417"/></g></svg>
