<?xml version="1.0" ?><svg enable-background="new 0 0 128 128" id="trello" version="1.1" viewBox="0 0 256 256" width="40px" height="40px" xml:space="preserve" xmlns="http://www.w3.org/2000/svg" xmlns:xlink="http://www.w3.org/1999/xlink"><g transform="translate(60, 60)"><rect clip-rule="evenodd" fill="none" fill-rule="evenodd" height="128" width="128"/><path clip-rule="evenodd" d="M16,0C7.164,0,0,7.168,0,16v96 c0,8.836,7.168,16,16,16h96c8.836,0,16-7.168,16-16V16c0-8.836-7.168-16-16-16H16z M72,24v40c0,4.42,3.58,8,8,8h24 c4.42,0,8-3.58,8-8V24c0-4.42-3.58-8-8-8H80C75.58,16,72,19.58,72,24z M16,24v72c0,4.42,3.58,8,8,8h24c4.42,0,8-3.58,8-8V24 c0-4.42-3.58-8-8-8H24C19.58,16,16,19.58,16,24z" fill="#fff" fill-rule="evenodd"/></g></svg>
