<?xml version="1.0" encoding="UTF-8" standalone="no"?>
<!-- Created with Inkscape (http://www.inkscape.org/) -->

<svg
   version="1.1"
   id="svg2"
   width="123.66667"
   height="112"
   viewBox="0 0 123.66667 112"
   sodipodi:docname="profile.svg"
   inkscape:version="1.1 (1:1.1+202106031931+af4d65493e)"
   xmlns:inkscape="http://www.inkscape.org/namespaces/inkscape"
   xmlns:sodipodi="http://sodipodi.sourceforge.net/DTD/sodipodi-0.dtd"
   xmlns="http://www.w3.org/2000/svg"
   xmlns:svg="http://www.w3.org/2000/svg">
  <defs
     id="defs6" />
  <sodipodi:namedview
     id="namedview4"
     pagecolor="#ffffff"
     bordercolor="#666666"
     borderopacity="1.0"
     inkscape:pageshadow="2"
     inkscape:pageopacity="0.0"
     inkscape:pagecheckerboard="0"
     showgrid="false"
     inkscape:zoom="3.9263034"
     inkscape:cx="81.374251"
     inkscape:cy="101.74965"
     inkscape:window-width="1920"
     inkscape:window-height="1016"
     inkscape:window-x="0"
     inkscape:window-y="27"
     inkscape:window-maximized="1"
     inkscape:current-layer="g8"
     width="186.66667px" />
  <g
     inkscape:groupmode="layer"
     inkscape:label="Image"
     id="g8">
    <g
       id="g8302"
       transform="matrix(0.78557496,0,0,0.78557496,-13.236151,-9.6439604)">
      <path
         style="fill:#2a2a2a;stroke-width:1.33333"
         d="m 82.312624,150.54927 c -21.64539,-5.0996 -31.669651,-25.299 -18.615136,-37.51046 7.862825,-7.35505 20.690555,-10.85845 28.267194,-7.72011 5.941893,2.46122 4.942825,3.40437 -3.076158,2.90399 -10.292221,-0.64222 -17.932705,1.8411 -23.840186,7.74858 -3.847656,3.84766 -5.047152,6.11627 -5.043353,9.53853 0.01093,9.82811 9.059767,18.11871 23.919255,21.91493 14.946338,3.81842 33.91005,-0.31202 42.60101,-9.27882 3.73134,-3.84978 4.16731,-4.93951 2.91345,-7.28237 -2.00076,-3.73846 -8.84787,-8.62984 -16.10536,-11.50522 -7.82214,-3.09909 -26.307292,-3.18252 -34.541324,-0.15589 -6.541765,2.40459 -7.935921,2.13195 -4.854613,-0.94936 3.785309,-3.7853 15.872973,-5.34987 27.895617,-3.61065 23.12094,3.34471 34.03934,12.66835 28.15671,24.04411 -4.92891,9.53146 -30.53243,15.90198 -47.677106,11.86274 z m 4.354044,-7.49519 c -2.967191,-1.09101 -6.672695,-4.59316 -6.624263,-6.26073 0.02332,-0.803 0.82222,-0.4336 1.775327,0.8209 2.330784,3.06783 7.911019,5.05242 14.206332,5.05242 5.432196,0 11.975936,-2.30258 11.975936,-4.21403 0,-0.61561 0.6,-1.11931 1.33334,-1.11931 2.53607,0 1.31807,2.10072 -2.53906,4.37919 -3.76151,2.22197 -15.589158,3.01033 -20.127612,1.34156 z M 40.879415,122.40822 c -0.747418,-2.85814 -0.82731,-2.86867 -3.488841,-0.46002 -2.678001,2.42356 -2.723907,2.40544 -2.723907,-1.07488 0,-4.32987 -1.671174,-4.53692 -4.358288,-0.53999 -1.109284,1.65 -2.415697,2.61677 -2.903141,2.14838 -0.487444,-0.46839 0.652927,-2.51244 2.534156,-4.54232 1.881231,-2.02988 3.625973,-3.44665 3.877207,-3.14837 0.251233,0.29827 1.12703,1.74231 1.946216,3.20898 0.819185,1.46667 1.507673,1.91667 1.529972,1 0.06868,-2.82342 4.062054,-1.84081 5.217974,1.28393 l 1.091499,2.95061 1.579115,-2.95061 c 0.868513,-1.62283 2.414456,-2.9506 3.435429,-2.9506 2.143346,0 7.804872,6.68944 6.64401,7.8503 -0.427091,0.42709 -1.943688,-0.71451 -3.370218,-2.53688 l -2.593686,-3.31342 -2.528846,3 c -3.186143,3.77976 -4.914057,3.80174 -5.888651,0.0749 z m 92.856725,-2.4018 c 0.17642,-5.65917 -0.0341,-6.0316 -3.77465,-6.67524 -2.88828,-0.49699 -4.0817,-1.5286 -4.40523,-3.80792 -0.41356,-2.91366 -0.85416,-3.06472 -6.47895,-2.22123 -4.70584,0.70569 -5.91072,0.51512 -5.47001,-0.86516 0.31087,-0.97361 1.88464,-2.36603 3.49726,-3.09426 1.91554,-0.86501 2.6292,-2.02064 2.0585,-3.33333 -0.48044,-1.105103 -1.1622,-3.696225 -1.51501,-5.758048 -0.50254,-2.936789 -0.062,-3.900292 2.03367,-4.448335 1.85514,-0.485129 2.47004,-1.4839 2.00602,-3.258333 -0.8592,-3.285572 1.83996,-6.532623 5.47552,-6.586968 2.64198,-0.03949 2.67654,-0.164015 0.50341,-1.813657 C 125.10694,76.200831 124.48832,72 126.76191,72 c 2.31198,0 5.43684,-3.719789 3.91499,-4.660345 -2.38344,-1.473046 -1.42952,-3.34234 1.65644,-3.245942 2.74776,0.08584 2.78397,0.178339 0.43077,1.100196 -2.17097,0.850464 -1.5918,1.479652 3.73625,4.058918 3.46803,1.678838 6.70295,2.654972 7.18874,2.169185 1.28913,-1.289127 -1.48504,-5.185751 -4.9393,-6.937791 -1.64365,-0.833677 -2.2917,-1.748029 -1.44012,-2.03189 1.01326,-0.337755 0.59372,-1.72971 -1.214,-4.027862 -1.51929,-1.931461 -2.7441,-4.017109 -2.7218,-4.634774 0.0223,-0.617666 0.6465,-0.08305 1.38711,1.188017 1.07825,1.850548 1.82825,2.010233 3.76391,0.801396 1.80329,-1.126177 3.53798,-1.118988 6.82909,0.02831 2.42648,0.845872 4.6468,1.302912 4.93407,1.015644 0.28728,-0.287268 -0.70778,-2.539974 -2.21122,-5.006012 -3.13476,-5.141812 -3.55509,-9.886968 -0.96389,-10.881306 0.97879,-0.375596 4.27567,-0.01667 7.3264,0.797619 6.96073,1.857928 8.96631,0.383943 6.89399,-5.066687 -1.0588,-2.784857 -1.02071,-4.145664 0.14605,-5.217118 1.14773,-1.053974 1.34057,-1.025256 0.70668,0.105226 -0.47949,0.855128 -0.25463,3.178111 0.49972,5.162183 2.20488,5.799255 -0.30531,7.605755 -9.05019,6.513153 -7.18768,-0.89804 -7.2481,-0.876218 -6.27166,2.264888 0.54225,1.744415 2.16322,4.84296 3.60214,6.885656 2.97528,4.223692 2.25872,8.163248 -1.29284,7.107927 C 138.72803,56.2363 137.90058,56.991536 144,64.66667 c 2.2,2.76834 4,5.477376 4,6.02008 0,2.393024 -4.25772,4.261708 -8.0033,3.512592 -4.44254,-0.888507 -4.85054,-0.107147 -1.94804,3.730718 1.08012,1.428199 1.6206,3.678199 1.20108,5 -0.54292,1.710582 -0.0643,2.408524 1.66041,2.421483 1.33276,0.01 3.9118,0.416239 5.7312,0.902723 3.29767,0.881748 3.30079,0.873486 1,-2.637962 -1.2694,-1.937364 -2.30801,-3.783173 -2.30801,-4.101798 0,-0.318626 2.64273,-0.789736 5.87273,-1.046911 3.23,-0.257176 5.5946,-0.01759 5.25464,0.532408 -0.33995,0.55 -2.77567,1 -5.41271,1 -4.5605,0 -4.68688,0.119067 -2.58798,2.438321 1.21366,1.341076 2.20665,3.176487 2.20665,4.07869 0,0.902202 0.51161,1.324177 1.13691,0.937722 0.62529,-0.386454 2.27529,0.159054 3.66666,1.21224 3.6684,2.776767 4.05256,2.498772 3.46787,-2.50949 -0.6102,-5.226867 1.76335,-7.49143 4.52793,-4.320011 1.03226,1.184152 1.15468,1.555147 0.27206,0.824433 -2.9242,-2.420929 -3.94727,-1.385033 -3.5208,3.564947 0.41028,4.762217 -1.68559,7.457521 -3.50714,4.510196 -0.47714,-0.772043 -1.68001,-1.403715 -2.67302,-1.403715 -1.45086,0 -1.51031,0.782028 -0.3027,3.981379 1.93992,5.139445 -0.0484,7.681415 -4.24977,5.432944 -2.48992,-1.332561 -2.76545,-1.160868 -2.47648,1.543141 0.2816,2.63507 -0.24688,3.01711 -3.94616,2.85268 -4.09492,-0.18201 -4.23859,-0.0168 -3.47904,4 0.43573,2.30442 1.44737,5.01949 2.24809,6.03349 1.17946,1.49362 1.60502,1.24049 2.24156,-1.33333 0.55924,-2.2613 1.60794,-3.08805 3.6385,-2.86846 1.95009,0.21089 2.62933,-0.27381 2.1466,-1.5318 -1.10311,-2.87463 2.05128,-3.93902 4.6646,-1.57399 3.32552,3.00955 4.32582,2.65133 3.35852,-1.20272 -0.85978,-3.42566 1.1426,-4.65878 2.91313,-1.79399 0.60083,0.97216 0.36449,1.17664 -0.64141,0.55495 -1.1499,-0.71068 -1.35236,-0.0265 -0.72814,2.46065 1.01882,4.05932 -1.24716,4.62212 -4.98612,1.2384 C 152.12454,105.03273 152,105.13727 152,109.17359 c 0,3.8404 -0.25902,4.11494 -2.66666,2.82641 -2.24852,-1.20337 -2.66667,-1.01399 -2.66667,1.20773 0,3.78097 -2.43279,4.75056 -5.33333,2.1256 -2.6358,-2.38537 -5.33334,-1.73432 -5.33334,1.2872 0,1.10285 0.9694,1.54298 2.51071,1.13992 1.58932,-0.41562 3.25543,0.40668 4.54004,2.24071 l 2.02932,2.89728 0.91901,-2.89555 c 0.7048,-2.22061 1.63428,-2.71602 3.98763,-2.12537 2.16553,0.54352 3.33485,0.0863 3.97333,-1.55367 0.82074,-2.10807 1.13204,-2.04529 3.35274,0.67615 3.01946,3.70032 4.02056,3.78332 4.02056,0.33333 0,-3.4269 1.604,-3.3842 4.78188,0.12731 l 2.5285,2.79397 0.87856,-3.1273 c 0.85262,-3.0349 0.88251,-3.04098 1.01148,-0.206 0.1902,4.18058 -2.00186,4.94392 -5.1518,1.79399 -2.53452,-2.53453 -2.71529,-2.55256 -2.71529,-0.27086 0,3.99122 -1.60775,4.42926 -4.90108,1.33534 l -3.09892,-2.91128 v 2.82039 c 0,4.11465 -2.28092,4.85658 -4.15651,1.352 l -1.62364,-3.03379 -1.22104,3.66312 c -1.44757,4.34271 -3.03265,4.64026 -5.30824,0.99645 -2.13806,-3.42358 -3.36669,-3.35927 -6.36888,0.33333 l -2.43908,3 z m 3.5972,-11.95951 c 0,-3.53714 -4.82897,-6.12535 -7.41857,-3.97618 -1.05312,0.87402 -1.91477,2.71566 -1.91477,4.09253 0,1.97215 0.99034,2.50341 4.66667,2.50341 3.74992,0 4.66667,-0.51464 4.66667,-2.61976 z m -10.22958,-8.38083 c 2.09044,-1.528567 2.10535,-1.916753 0.17924,-4.666667 C 125.20993,92.039696 120,90.802979 120,93.270596 c 0,1.970689 2.99148,8.062734 3.95918,8.062734 0.47546,0 1.89052,-0.75026 3.14458,-1.66725 z m 7.72567,-1.899409 c -1.16207,-1.99837 -1.42225,-2.05597 -1.45555,-0.322227 -0.0431,2.24544 1.35892,4.267196 2.3039,3.322226 0.31166,-0.31166 -0.0701,-1.661665 -0.84835,-2.999999 z m 10.50391,2.328569 c 0,-2.164379 -4.09414,-5.428573 -6.80882,-5.428573 -2.16541,0 -2.38222,0.441193 -1.25337,2.550462 1.88749,3.526831 8.06219,5.731121 8.06219,2.878111 z m 6.02094,-7.999899 c -0.56354,-2.56581 -1.73138,-4.102141 -3.12689,-4.113548 -1.22505,-0.01 -3.67904,-0.406576 -5.45329,-0.88125 -3.13246,-0.838044 -3.16355,-0.774022 -1.07343,2.210058 2.24413,3.203944 9.1456,8.287574 10.03868,7.394499 0.28293,-0.282929 0.1096,-2.357321 -0.38507,-4.609759 z M 137.41511,92 c 1.64381,0 2.05076,-0.859693 1.57789,-3.333333 -0.54516,-2.851836 -1.36166,-3.333334 -5.65252,-3.333334 h -5.0153 l 2.11173,4.65901 c 1.3997,3.088068 2.55874,4.212013 3.43741,3.333333 C 134.60344,92.596555 136.1968,92 137.41511,92 Z m -3.11732,-13.7202 c -2.23563,-3.367035 -5.86486,-5.82384 -6.97022,-4.718483 -1.04949,1.049494 6.3481,8.726084 7.7507,8.043015 0.59304,-0.288815 0.24183,-1.784855 -0.78048,-3.324532 z M 21.883227,118 c 1.699076,-1.83333 3.575015,-3.33333 4.168753,-3.33333 0.593739,0 -0.329653,1.5 -2.05198,3.33333 -1.722326,1.83333 -3.598266,3.33333 -4.168753,3.33333 -0.570488,0 0.352904,-1.5 2.05198,-3.33333 z m 30.902582,-1.33333 c -0.938815,-3.74054 -3.628591,-4.33427 -6.106957,-1.34802 -2.209674,2.6625 -4.012185,1.31591 -4.012185,-2.99734 0,-2.7388 -0.355556,-3.16575 -1.6,-1.92131 -2.916822,2.91682 -5.194252,1.90591 -4.243177,-1.88347 0.868291,-3.45954 0.850999,-3.4682 -2.517799,-1.26088 -3.848965,2.52194 -5.679102,1.07159 -4.265994,-3.38072 0.858065,-2.70352 0.790321,-2.71507 -2.913938,-0.49651 -3.726448,2.23185 -3.744769,2.22802 -1.053171,-0.22019 2.105399,-1.91502 2.568194,-3.529718 2.000001,-6.978026 l -0.739255,-4.486463 -2.539984,2.819796 c -2.689128,2.985371 -6.126683,3.775244 -6.126683,1.407774 0,-0.776612 0.529477,-1.084788 1.176617,-0.684834 0.647139,0.399955 2.691776,-0.464636 4.543639,-1.92131 4.479462,-3.523544 4.946411,-3.376452 4.946411,1.55815 0,4.044771 0.09725,4.118642 2.527131,1.919628 1.389921,-1.257861 2.805064,-3.900854 3.14476,-5.873316 0.339697,-1.972462 1.123618,-4.784669 1.742046,-6.249346 1.105622,-2.618539 1.062267,-2.62233 -2.59378,-0.226796 -4.506365,2.952684 -5.529964,2.166698 -5.011738,-3.848336 0.450818,-5.232644 0.05377,-5.439964 -4.590459,-2.396947 -2.735292,1.792233 -3.650047,1.879231 -4.95309,0.471061 -1.252322,-1.353357 -1.224816,-1.515658 0.127094,-0.749944 0.948916,0.53746 3.215862,5.47e-4 5.037661,-1.193141 4.131675,-2.707175 5.903708,-1.700897 5.903708,3.352509 0,4.405899 0.30712,4.584788 3.957454,2.305118 3.636309,-2.270914 4.730142,-0.499719 3.057373,4.950664 -1.56494,5.09904 -1.018616,5.592069 2.90668,2.623125 3.950167,-2.987757 5.160224,-2.366251 4.250363,2.18306 -0.869562,4.347804 -1.093234,4.282896 5.486212,1.592075 0.911944,-0.372962 2.160693,0.680581 2.774999,2.341205 l 1.116917,3.019316 2.263569,-3.213292 c 2.241412,-3.18184 2.222694,-3.217483 -1.912328,-3.641347 -3.61487,-0.370545 -4.093288,-0.860193 -3.561014,-3.644605 0.537882,-2.813751 0.222696,-3.118119 -2.516914,-2.43052 -4.261841,1.069653 -5.356881,-2.267581 -2.283277,-6.958493 2.356531,-3.59652 2.351445,-3.660887 -0.232016,-2.936927 -6.062722,1.698948 -6.63429,1.674983 -6.393379,-0.268068 0.136385,-1.1 0.642056,-3.295284 1.123712,-4.878409 0.647831,-2.129312 0.236301,-3.0433 -1.581305,-3.511999 -2.00132,-0.516072 -1.900614,-0.662276 0.542954,-0.788257 3.314146,-0.170864 3.905242,2.329182 1.578576,6.676597 -1.328324,2.481996 -1.109998,2.597531 3.333334,1.763957 5.394116,-1.011942 6.206407,0.738908 2.679152,5.77477 C 45.360806,83.744895 45.374021,84 47.411236,84 c 2.181956,0 11.255432,-8.808893 11.255432,-10.927223 0,-0.590028 -3,-1.072777 -6.666667,-1.072777 -3.698925,0 -6.666667,-0.613333 -6.666667,-1.377777 0,-0.757779 2.1,-3.477779 4.666667,-6.044446 2.566667,-2.566666 4.666667,-5.029274 4.666667,-5.472464 0,-0.443188 -3.229099,-0.42628 -7.175776,0.03757 -5.581194,0.65596 -7.553433,0.388322 -8.875269,-1.204392 -1.425656,-1.717811 -1.021366,-2.747414 2.509108,-6.38994 2.314732,-2.388195 4.208603,-4.709396 4.208603,-5.158224 0,-0.448827 -2.605835,-0.776655 -5.790745,-0.728507 -3.18491,0.04815 -6.48491,-0.341476 -7.333334,-0.865831 -2.693253,-1.664522 -1.674238,-5.504288 2.5296,-9.531821 2.492774,-2.388228 3.83385,-4.812819 3.457679,-6.251295 -0.33798,-1.29244 -0.07047,-2.013652 0.594479,-1.602694 2.236724,1.382372 1.235372,4.466977 -3.025483,9.319822 -5.059403,5.762342 -3.874449,7.218064 5.901137,7.249578 7.317822,0.02359 8.140649,1.857696 3,6.687084 -5.121392,4.811297 -4.223718,6.07107 4.29933,6.033577 6.359972,-0.02797 7.714035,0.375323 8.120673,2.418704 0.268406,1.348755 -0.870881,3.898755 -2.531748,5.666667 L 51.535164,68 h 3.456702 c 8.126228,0 9.489631,2.748787 4.98144,10.043192 l -2.693361,4.357951 7.134792,-0.316012 c 9.027332,-0.399836 12.860058,-2.445062 6.39001,-3.409847 -6.031003,-0.899317 -8.176557,-4.282809 -4.965686,-7.83078 2.330715,-2.575412 2.2942,-2.656308 -1.389385,-3.078048 -5.53063,-0.633211 -5.80081,-5.354352 -0.52945,-9.251637 5.426967,-4.01233 5.144113,-5.181486 -1.253558,-5.181486 -6.293103,0 -6.909447,-2.05448 -2,-6.666666 C 65.555636,42.07372 64.957997,40 58.745357,40 c -2.890055,0 -5.533631,-0.45 -5.874613,-1 -0.340983,-0.55 2.323606,-0.792092 5.92131,-0.537983 7.824934,0.552684 8.549847,2.946336 2.91894,9.638288 l -3.62234,4.304907 4.771022,-0.895049 c 3.583775,-0.67232 5.220381,-0.353603 6.576804,1.280786 1.569069,1.890614 1.243712,2.678044 -2.482015,6.006982 -5.253725,4.694201 -5.600893,7.154057 -0.841074,5.959418 1.895698,-0.47579 4.652073,-0.482509 6.125278,-0.01493 2.558026,0.811885 2.51132,1.024697 -1.037932,4.729319 -4.355661,4.54633 -3.394342,6.2521 3.796411,6.736372 5.868468,0.39522 9.535952,-2.102692 5.137071,-3.498843 -3.799144,-1.205801 -3.524114,-4.901427 0.655658,-8.81018 L 84.24642,60.666667 79.123211,60 c -7.528655,-0.97968 -7.760708,-5.324596 -0.539596,-10.103301 2.979013,-1.971418 5.416386,-4.104664 5.416386,-4.740547 0,-0.635884 -2.41883,-1.156152 -5.37518,-1.156152 -7.717692,0 -8.426772,-3.154175 -1.934424,-8.604831 6.435166,-5.402648 5.781611,-8.728502 -1.715216,-8.728502 -4.849413,0 -8.308513,-1.816002 -8.308513,-4.361906 0,-0.639046 0.942857,-0.219046 2.095239,0.933334 1.170773,1.170774 4.334364,2.095238 7.170073,2.095238 9.506355,0 9.98075,5.531087 1.076293,12.548771 l -4.341605,3.421657 4.333333,0.01479 c 3.389819,0.0116 4.333334,-0.542772 4.333334,-2.545941 0,-1.774378 1.257598,-2.836942 4.095341,-3.460214 2.252438,-0.494718 4.373271,-0.621558 4.712963,-0.281866 0.339692,0.339692 -1.203212,0.981788 -3.428675,1.426881 -5.416029,1.083205 -5.098057,2.808733 1.297502,7.041115 4.221629,2.793741 5.027324,3.917685 3.836741,5.35225 -0.828883,0.998742 -2.898181,1.815894 -4.598443,1.815894 -5.116429,0 -5.090933,2.590132 0.04663,4.736741 2.651352,1.107805 5.134044,2.830911 5.517095,3.829123 0.541158,1.410238 2.086508,1.038014 6.930452,-1.669316 l 6.233999,-3.48425 -4.87934,-1.372816 c -2.683637,-0.755048 -5.289647,-1.784016 -5.791133,-2.286592 -1.441733,-1.444869 2.936298,-6.772038 6.997333,-8.514322 3.43598,-1.474123 3.50846,-1.657806 1.02954,-2.609018 C 93.724657,35.60918 91.896194,34.579995 92.685499,33.302871 93.168075,32.522047 92.83779,31.009472 91.951531,29.941596 90.81667,28.574172 90.782724,28 91.836742,28 c 0.823126,0 1.516554,0.75 1.540952,1.666667 0.0244,0.916666 1.149913,0.342181 2.501144,-1.276634 1.351232,-1.618816 2.770705,-2.62938 3.154385,-2.2457 1.030907,1.030907 11.379477,-1.98805 12.383507,-3.612604 0.47446,-0.767692 -0.40021,-2.740057 -1.9437,-4.383034 -1.5435,-1.642978 -2.80636,-3.444596 -2.80636,-4.003598 0,-0.559 1.5,0.766284 3.33333,2.945078 1.83334,2.178792 3.33334,4.63769 3.33334,5.464218 0,1.621482 -3.76133,3.446882 -9.75526,4.734302 -5.211806,1.119428 -4.198872,4.57095 2.43324,8.291128 7.64831,4.290205 7.26983,5.673924 -2.67798,9.790646 l -4.000005,1.655327 6.239845,2.615217 c 3.43191,1.438371 6.61863,3.602312 7.08158,4.80876 1.03004,2.68424 -3.72399,6.881418 -7.80247,6.888544 -2.41818,0.0043 -2.19277,0.407102 1.48105,2.64707 4.9891,3.041917 5.6249,6.958752 1.58849,9.785962 l -2.74484,1.92256 3.23107,3.486379 c 3.19551,3.44802 6.25861,4.581668 6.25861,2.316305 0,-0.643541 -0.9,-1.917008 -2,-2.829926 -3.2581,-2.703982 -2.31326,-4 2.91612,-4 h 4.91612 l -3.69212,-3.853742 c -4.10929,-4.289178 -2.901,-6.421206 3.19231,-5.632802 3.21426,0.415888 3.24972,0.339785 1,-2.146127 -1.28284,-1.417517 -2.31909,-3.13006 -2.30278,-3.805651 0.0341,-1.414833 5.22923,4.927104 5.27403,6.438322 0.0163,0.55 -1.87494,1 -4.20277,1 h -4.23242 l 3.06778,3.265492 c 3.56964,3.799712 2.84464,8.090741 -1.18879,7.035977 -2.28054,-0.596376 -2.39221,-0.313868 -1.04482,2.643332 1.25273,2.74944 1.12239,3.527223 -0.76842,4.585375 -1.80125,1.00803 -2.10084,2.376294 -1.43373,6.548157 0.79989,5.002199 0.62843,5.348769 -3.32859,6.728195 -2.29456,0.799886 -4.17192,1.927544 -4.17192,2.505906 0,0.578359 -1.84451,1.322289 -4.09892,1.653159 -3.421115,0.50211 -3.996235,0.20894 -3.477968,-1.772911 0.34152,-1.305977 -0.513967,-3.401586 -1.901084,-4.65691 -3.40183,-3.078614 -3.18217,-7.914214 0.47797,-10.522054 2.772862,-1.975657 2.823342,-2.238773 0.666667,-3.475192 -3.268343,-1.873741 -3.057659,-8.730248 0.333333,-10.847957 3.384942,-2.113929 3.413242,-3.690569 0.06625,-3.690569 -1.430227,0 -3.114987,-0.919491 -3.743908,-2.043314 -0.996239,-1.780178 -1.703608,-1.807804 -5.492936,-0.21451 l -4.34944,1.828802 3.37977,2.21451 c 5.568496,3.64862 6.677636,7.010469 3.395672,10.292433 -2.572773,2.572773 -2.630656,2.999125 -0.697224,5.135545 2.433583,2.689078 2.711956,5.649723 0.718636,7.643043 -0.964233,0.964233 -0.760081,1.912496 0.666667,3.096592 3.268548,2.712655 2.638856,5.875962 -0.943491,4.7397 -2.8275,-0.896836 -4.389684,-0.973807 -10,-0.492715 -1.283333,0.110054 -3.833333,-0.216001 -5.666667,-0.724553 -2.681077,-0.743708 -3.594236,-0.32628 -4.666666,2.13325 -0.909474,2.0858 -2.665068,3.18729 -5.52256,3.46495 -3.340855,0.32462 -4.057727,0.90991 -3.53989,2.89013 0.58014,2.21846 0.03196,2.40329 -5.144108,1.73449 -9.439275,-1.21964 -11.793443,-2.53001 -11.793443,-6.56444 v -3.598751 l -3.046827,2.862341 c -3.93111,3.69309 -4.474744,8.24307 -0.872328,7.30102 1.79927,-0.47052 2.893952,0.23547 3.686303,2.3774 0.740111,2.00071 1.458304,2.51065 2.091966,1.48537 1.741469,-2.81776 6.143598,-1.72776 7.507221,1.85884 1.6149,4.24751 1.646321,5.9132 0.111543,5.9132 -0.653835,0 -1.565266,-1.5 -2.025403,-3.33333 z M 36.837254,104 c 0.711669,0 1.041705,-2.16061 0.733412,-4.801363 L 37.010134,94.397273 34.297209,97.1102 c -1.49211,1.492109 -2.925084,4.65087 -3.184387,7.01946 -0.449341,4.1045 -0.356472,4.20248 1.979513,2.08844 C 34.440371,104.99815 36.125585,104 36.837254,104 Z m 21.829414,0.14265 c 0,-2.17152 -3.778748,-2.68248 -5.39911,-0.73006 -1.318802,1.58906 -0.990266,1.92074 1.902516,1.92074 1.923127,0 3.496594,-0.5358 3.496594,-1.19068 z M 50.64625,98.333333 c 0.01123,-0.55 -0.579582,-1 -1.312916,-1 -0.733333,0 -1.324145,1.35 -1.312916,2.999997 0.01651,2.42592 0.267751,2.61728 1.312916,1 0.710875,-1.1 1.301687,-2.449997 1.312916,-2.999997 z m 16.543246,0.894043 c 0.444473,-1.158277 0.427417,-4.486815 -0.03791,-7.396752 l -0.846032,-5.290793 -6.503612,0.396752 c -3.576987,0.218212 -6.480841,0.988777 -6.453009,1.712364 0.02783,0.723588 1.835706,1.128368 4.017497,0.899512 4.328036,-0.453984 5.173707,1.705237 2.571903,6.566752 -0.767247,1.433612 -1.031836,3.194166 -0.587978,3.912349 1.289364,2.08623 6.953369,1.50808 7.839131,-0.800184 z M 42.572954,93 c 0.05154,-0.55 -0.506287,-1 -1.23962,-1 -0.733333,0 -1.291163,1.65 -1.23962,3.666667 0.08304,3.249125 0.224204,3.363 1.23962,1 C 41.963582,95.2 42.521411,93.55 42.572954,93 Z m 36.677783,-1.6056 c -1.848112,-2.820575 -2.004426,-4.142849 -0.801788,-6.782352 1.58654,-3.482076 0.475639,-4.336635 -2.182281,-1.678715 -2.825097,2.825098 -1.962507,9.826784 1.4,11.36387 4.007064,1.831726 4.315688,1.266173 1.584069,-2.902803 z m 27.227923,0.139055 c 2.6362,-2.806104 2.72594,-3.313772 0.8596,-4.862696 -1.60162,-1.329235 -2.84618,-1.382164 -5.37774,-0.228707 -3.57926,1.630819 -4.212205,4.106261 -1.69385,6.624615 2.20835,2.208353 2.84447,2.051349 6.21199,-1.533212 z M 88.791679,89.131061 c 1.243263,-2.01164 -3.546591,-5.576148 -5.230392,-3.892346 -1.698726,1.698725 -0.106042,5.427952 2.318179,5.427952 1.079737,0 2.390232,-0.691023 2.912213,-1.535606 z M 85.333335,70.142652 c 0,-0.288208 -0.931163,-0.881336 -2.069251,-1.318061 -1.186567,-0.455328 -1.721763,-0.231799 -1.254644,0.524014 0.783011,1.266939 3.323895,1.873931 3.323895,0.794047 z M 81.666668,54.880745 c -1.583413,-1.664338 -2.864272,-2.044309 -3.98532,-1.182257 -2.331393,1.792775 -0.778611,3.634845 3.064009,3.634845 3.116727,0 3.155768,-0.103929 0.921311,-2.452588 z M 109.33334,56 c 0,-0.733333 -0.6,-1.333333 -1.33334,-1.333333 -0.73333,0 -1.33333,0.6 -1.33333,1.333333 0,0.733333 0.6,1.333333 1.33333,1.333333 0.73334,0 1.33334,-0.6 1.33334,-1.333333 z M 90.666668,47.475985 c 0,-0.288208 -0.9,-0.869377 -2,-1.291486 -1.1,-0.422111 -2,-0.186304 -2,0.524014 0,0.710318 0.9,1.291487 2,1.291487 1.1,0 2,-0.235807 2,-0.524015 z m 18.666672,-6.730629 c 0,-0.323388 -0.6,-0.958797 -1.33334,-1.412023 -0.73333,-0.453225 -1.33333,-0.188634 -1.33333,0.587978 0,0.776612 0.6,1.412022 1.33333,1.412022 0.73334,0 1.33334,-0.264589 1.33334,-0.587977 z m -9.15357,-7.269845 c -3.591306,-3.943702 -5.513102,-4.183247 -5.513102,-0.68719 0,1.080352 1.35,2.506911 3,3.17013 5.370042,2.158493 6.091072,1.446116 2.513102,-2.48294 z m 63.28698,70.837409 c 0.80671,-0.53877 1.80933,-1.87959 2.22807,-2.97959 0.50872,-1.33639 0.79625,-1.00459 0.86658,1 0.0707,2.01553 -0.66044,2.9933 -2.22806,2.97959 -1.43924,-0.0125 -1.77131,-0.39578 -0.86659,-1 z m 4.49992,-19.857364 c 0.75167,-0.372779 1.36667,-1.792368 1.36667,-3.154644 0,-1.362277 0.54918,-2.816279 1.2204,-3.231116 0.70877,-0.438044 0.81804,0.75024 0.26064,2.834431 -0.52787,1.973774 -1.69206,3.732776 -2.58707,3.908893 -0.89501,0.176117 -1.01231,0.01521 -0.26064,-0.357564 z M 153.6,74.4 c -1.94122,-1.941227 -2.07302,-4.616944 -0.28193,-5.723895 0.75812,-0.468544 0.97796,0.07167 0.51749,1.271624 -0.4403,1.147427 -0.06,2.97859 0.8452,4.069251 1.9685,2.371892 1.18558,2.649357 -1.08076,0.38302 z M 33.083334,68.422515 c 0.9625,-0.385162 2.1125,-0.337792 2.555556,0.105266 0.443055,0.443056 -0.344445,0.758188 -1.75,0.700294 -1.553257,-0.06397 -1.8692,-0.379922 -0.805556,-0.805556 z M 52.000001,33.412023 c 0,-0.690055 0.593128,-1.621218 1.318061,-2.069251 0.755814,-0.467119 0.979343,0.06808 0.524015,1.254644 -0.886388,2.309889 -1.842076,2.732516 -1.842076,0.814607 z M 30.222223,25.777777 c -0.488889,-0.488888 -0.879701,-1.538888 -0.868472,-2.333333 0.01381,-0.977521 0.337071,-0.955547 1,0.06799 0.538771,0.831833 2.179583,1.812232 3.64625,2.178664 2.579365,0.64443 2.575728,0.671305 -0.111107,0.82091 -1.527779,0.08507 -3.177779,-0.245332 -3.666667,-0.734221 z m 39.063385,-8.225305 c 0.878413,-1.712808 1.962788,-2.748523 2.409721,-2.301588 0.446935,0.446935 -0.271766,1.848323 -1.597113,3.114196 -2.303671,2.200296 -2.339433,2.164533 -0.812608,-0.812608 z"
         id="path7955" />
      <ellipse
         style="fill:#2a2a2a;fill-opacity:1"
         id="path8114"
         cx="146.84854"
         cy="97.247108"
         rx="2.5104208"
         ry="0.78400058"
         transform="rotate(18.012235)" />
    </g>
  </g>
</svg>
